<?xml version="1.0" encoding="utf-8"?>
<!-- Generator: Adobe Illustrator 18.1.1, SVG Export Plug-In . SVG Version: 6.00 Build 0)  -->
<!DOCTYPE svg PUBLIC "-//W3C//DTD SVG 1.1 Tiny//EN" "http://www.w3.org/Graphics/SVG/1.1/DTD/svg11-tiny.dtd">
<svg version="1.1" baseProfile="tiny" id="Layer_1" xmlns="http://www.w3.org/2000/svg" xmlns:xlink="http://www.w3.org/1999/xlink"
	 x="0px" y="0px" viewBox="0 0 512 512" xml:space="preserve">
<path fill="#FFFFFF" d="M360.7,233.1c0-6.6-1.7-11.5-4.9-16c-3.4-3.8-8.9-7.7-16.6-10.5l-15.5-6.1c-6.1-2.2-10.5-4.4-12.1-6.6
	c-2.2-2.2-3.4-4.4-3.4-8.3c0-8.3,6.1-12.7,18.7-12.7c7.2,0,14.3,1.1,21,3.4c2.2,0.6,3.8,1.1,4.4,1.1c1.7,0,2.8-1.1,2.8-3.4v-5.5
	c0-1.7-0.6-2.8-1.1-3.8c-0.6-1.1-1.7-1.7-3.4-2.2c-8.3-2.8-16.6-4.4-24.9-4.4c-10.5,0-19.3,2.8-25.9,7.7s-10,12.1-10,20.4
	c0,12.7,7.2,22.1,21.5,27.6l16.6,6.1c5.5,2.2,8.9,3.8,11,6.1c2.2,2.2,2.8,4.4,2.8,7.7c0,4.4-1.7,8.3-4.9,10.5
	c-3.4,2.2-8.3,3.8-14.3,3.8c-9.4,0-18.3-1.1-27-3.8c-2.2-0.6-3.8-1.1-4.9-1.1c-1.7,0-2.2,1.1-2.2,3.4v5.5c0,1.7,0.6,2.8,1.1,3.8
	c0.6,0.6,1.7,1.7,3.4,2.2c8.9,3.8,18.7,5.5,29.8,5.5c11.5,0,20.4-2.8,27.6-8.3C357.4,249.7,360.7,242.5,360.7,233.1z"/>
<path fill="#FFFFFF" d="M18.3,260.7h11.5c2.8,0,3.8-1.1,3.8-3.8v-74.5c9.4-5.5,18.7-8.9,28.7-8.9c5.5,0,9.4,1.7,11.5,4.9
	c2.2,3.4,3.8,7.7,3.8,14.3v63.5c0,2.8,1.1,3.8,3.8,3.8h11.9c2.8,0,3.8-1.1,3.8-3.8v-67.8V185c0-1.1,0-2.2,0-2.8
	c10-6.1,19.3-8.9,28.7-8.9c5.5,0,9.4,1.7,11.5,4.9c2.2,3.4,3.8,7.7,3.8,14.3v63.5c0,2.8,1.1,3.8,3.8,3.8h11.5c2.8,0,3.8-1.1,3.8-3.8
	v-68.8c0-9.4-2.2-16.6-7.2-21.5c-4.9-4.9-11.5-7.7-21-7.7c-12.7,0-25.9,4.4-38.7,13.8C89.3,162.4,81,158,68.8,158
	c-12.1,0-24.3,4.4-36.4,12.7l-1.1-6.1c0-1.7-0.6-2.2-1.7-2.8c-0.6-0.6-1.7-0.6-2.8-0.6h-8.9c-2.8,0-3.8,1.1-3.8,3.8v91.6
	C14.5,259.7,15.7,260.7,18.3,260.7z"/>
<path fill="#FFFFFF" d="M374.5,131.6c0,3.4,1.1,6.6,3.4,8.3c2.2,2.2,4.9,3.4,8.9,3.4c3.8,0,6.6-1.1,8.9-3.4c2.2-2.2,3.4-4.9,3.4-8.3
	s-0.6-6.6-2.8-8.3c-2.2-2.2-5.5-3.4-9.4-3.4c-3.8,0-6.6,1.1-8.9,3.4C375.6,125.5,374.5,128.3,374.5,131.6z"/>
<path fill="#FFFFFF" d="M487.6,243.1c-0.6,0-1.7,0-2.8,0.6c-6.1,1.7-12.1,2.8-17.7,2.8c-10.5,0-18.2-2.8-23.2-8.3
	c-4.9-5.5-7.2-14.3-7.2-25.9v-2.8c0.6-12.1,2.8-21,7.7-26.5c4.9-5.5,12.7-8.3,23.8-8.3c5.5,0,11,0.6,16,2.2c1.7,0.6,2.2,0.6,3.4,0.6
	c1.7,0,2.8-1.1,2.8-3.8v-5.5c0-1.7-0.6-3.4-1.1-3.8c-0.6-0.6-1.7-1.7-2.8-2.2c-7.2-1.7-14.3-3.4-21-3.4c-15.5,0-27,4.4-35.9,13.8
	c-8.3,8.9-12.7,22.1-12.7,38.7s3.8,29.3,12.1,38.1s19.8,13.2,35.3,13.2c8.3,0,16-1.1,22.1-3.8c1.7-0.6,2.8-1.1,3.4-2.2
	c0.6-0.6,0.6-2.2,0.6-3.8v-5.5C490.4,244.2,489.3,243.1,487.6,243.1z"/>
<path fill="#FFFFFF" d="M392.7,160.8h-11.5c-2.8,0-3.8,1.1-3.8,3.8v91.6c0,2.8,1.1,3.8,3.8,3.8h11.5c2.8,0,3.8-1.1,3.8-3.8v-91.6
	C396.6,162.5,395.5,160.8,392.7,160.8z"/>
<path fill="#FFFFFF" d="M266.2,160.8h-11.5c-3.4,0-4.4,1.7-4.4,3.8v73.4c-9.4,6.1-18.7,9.4-28.1,9.4c-6.1,0-10.5-1.7-13.2-4.9
	c-2.8-3.4-3.8-8.3-3.8-15.5v-62.3c0-2.8-1.1-3.8-3.8-3.8h-11.5c-2.8,0-3.8,1.1-3.8,3.8v68.5c0,9.4,2.2,17.2,7.2,22.1
	c4.9,4.9,12.1,7.7,21.5,7.7c12.7,0,25.4-4.4,37.6-13.2l1.1,6.6c0,1.7,0.6,2.2,1.7,2.8c0.6,0.6,1.7,0.6,3.4,0.6h8.3
	c2.8,0,3.8-1.1,3.8-3.8v-91.1C270.1,161.9,269,160.8,266.2,160.8z"/>
<path fill="#FFFFFF" d="M413.6,318.7c17.2-2.2,55.7-6.6,62.9,2.2c6.6,8.9-7.7,45.3-14.3,61.3c-1.7,4.9,2.2,6.6,7.2,3.4
	c28.7-24.3,36.4-74.5,30.4-82.3c-2.8-3.4-16-6.6-32.6-6.6c-17.7,0-38.7,3.8-54.7,14.9C407.6,314.8,408.7,319.2,413.6,318.7z"/>
<path fill="#FFFFFF" d="M446.3,333.6c-60.2,25.4-125.9,38.1-185.5,38.1c-88.3,0-173.9-24.3-242.9-64.6c-1.1-0.6-2.2-1.1-3.4-1.1
	c-3.8,0-6.1,4.4-2.2,8.3c64.2,58,149.2,92.7,243,92.7c67.4,0,145.2-21,198.8-60.8C463.3,339.7,455.7,329.8,446.3,333.6z"/>
</svg>
