<svg role="img" viewBox="0 0 24 24" xmlns="http://www.w3.org/2000/svg">
<title>Amazon Prime Music icon</title>
<path d="m16.9 10.6c0-0.3-0.1-0.5-0.2-0.7-0.2-0.2-0.4-0.4-0.8-0.5l-0.7-0.3c-0.3-0.1-0.5-0.2-0.6-0.3s-0.2-0.2-0.2-0.4c0-0.4 0.3-0.6 0.9-0.6 0.3 0 0.7 0.1 1 0.2 0.1 0 0.2 0.1 0.2 0.1 0.1 0 0.1-0.1 0.1-0.2v-0.3c0-0.1 0-0.1-0.1-0.2 0-0.1-0.1-0.1-0.2-0.1-0.4-0.1-0.8-0.2-1.2-0.2-0.5 0-0.9 0.1-1.2 0.4-0.3 0.2-0.5 0.6-0.5 1 0 0.6 0.3 1 1 1.3l0.8 0.3c0.3 0.1 0.4 0.2 0.5 0.3s0.1 0.2 0.1 0.4-0.1 0.4-0.2 0.5c-0.2 0.1-0.4 0.2-0.7 0.2-0.4 0-0.9-0.1-1.3-0.2-0.1 0-0.2-0.1-0.2-0.1-0.1 0-0.1 0.1-0.1 0.2v0.3c0 0.1 0 0.1 0.1 0.2 0 0 0.1 0.1 0.2 0.1 0.4 0.2 0.9 0.3 1.4 0.3s1-0.1 1.3-0.4c0.4-0.5 0.6-0.9 0.6-1.3zm-16 1.3h0.5c0.1 0 0.2-0.1 0.2-0.2v-3.5c0.4-0.3 0.9-0.4 1.3-0.4 0.3 0 0.4 0.1 0.5 0.2 0.1 0.2 0.2 0.4 0.2 0.7v3c0 0.1 0.1 0.2 0.2 0.2h0.6c0.1 0 0.2-0.1 0.2-0.2v-3.4-0.1c0.4-0.3 0.9-0.4 1.3-0.4 0.3 0 0.4 0.1 0.5 0.2 0.1 0.2 0.2 0.4 0.2 0.7v3c0 0.1 0.1 0.2 0.2 0.2h0.5c0.1 0 0.2-0.1 0.2-0.2v-3.3c0-0.4-0.1-0.8-0.3-1s-0.6-0.3-1-0.3c-0.6 0-1.2 0.2-1.8 0.6-0.2-0.4-0.6-0.6-1.2-0.6s-1.1 0.2-1.7 0.6v-0.3c0-0.1 0-0.1-0.1-0.1h-0.1-0.4c-0.1 0-0.2 0.1-0.2 0.2v4.3s0.1 0.1 0.2 0.1zm16.6-6.1c0 0.2 0.1 0.3 0.2 0.4s0.2 0.2 0.4 0.2 0.3-0.1 0.4-0.2 0.2-0.2 0.2-0.4 0-0.3-0.1-0.4-0.3-0.2-0.4-0.2c-0.2 0-0.3 0.1-0.4 0.2-0.2 0.1-0.3 0.3-0.3 0.4zm5.3 5.2h-0.1c-0.3 0.1-0.6 0.1-0.8 0.1-0.5 0-0.9-0.1-1.1-0.4s-0.3-0.7-0.3-1.2c0-0.6 0.1-1 0.4-1.2 0.1-0.3 0.5-0.5 1-0.5 0.3 0 0.5 0 0.7 0.1h0.2c0.1 0.1 0.2 0 0.2-0.1v-0.3c0-0.1 0-0.2-0.1-0.2l-0.1-0.1c-0.3-0.1-0.7-0.2-1-0.2-0.7 0-1.3 0.2-1.7 0.6s-0.6 1-0.6 1.8 0.2 1.4 0.6 1.8 0.9 0.6 1.7 0.6c0.4 0 0.7-0.1 1-0.2 0.1 0 0.1-0.1 0.2-0.1v-0.2-0.3c0 0.1-0.1 0-0.2 0zm-4.4-3.8h-0.5c-0.1 0-0.2 0.1-0.2 0.2v4.3c0 0.1 0.1 0.2 0.2 0.2h0.5c0.1 0 0.2-0.1 0.2-0.2v-4.3c0-0.1-0.1-0.2-0.2-0.2zm-5.9 0h-0.5c-0.2 0-0.2 0.1-0.2 0.2v3.4c-0.4 0.3-0.9 0.4-1.3 0.4-0.3 0-0.5-0.1-0.6-0.2-0.1-0.2-0.2-0.4-0.2-0.7v-2.9c0-0.1-0.1-0.2-0.2-0.2h-0.6c-0.1 0-0.2 0.1-0.2 0.2v3.2c0 0.4 0.1 0.8 0.3 1s0.6 0.4 1 0.4c0.6 0 1.2-0.2 1.8-0.6l0.1 0.3c0 0.1 0 0.1 0.1 0.1h0.2 0.4c0.1 0 0.2-0.1 0.2-0.2v-4.2c-0.1-0.2-0.2-0.2-0.3-0.2zm6.9 7.4c0.8-0.1 2.6-0.3 2.9 0.1s-0.4 2.1-0.7 2.9c-0.1 0.2 0.1 0.3 0.3 0.2 1.3-1.1 1.7-3.5 1.4-3.9-0.1-0.2-0.7-0.3-1.5-0.3s-1.8 0.2-2.6 0.7c-0.1 0.1-0.1 0.3 0.2 0.3zm1.5 0.7c-2.8 1.2-5.9 1.8-8.7 1.8-4.1 0-8.1-1.1-11.4-3 0-0.1 0-0.1-0.1-0.1-0.2 0-0.3 0.2-0.1 0.4 3 2.7 7 4.3 11.4 4.3 3.2 0 6.8-1 9.3-2.8 0.4-0.3 0-0.8-0.4-0.6z"/>
</svg>
