<svg role="img" viewBox="0 0 24 24" xmlns="http://www.w3.org/2000/svg">
<title>Blue-Ray icon</title>
<path d="m3.1 7.6c-0.9 1.2-1.8 2.5-2.5 3.9l-0.1 0.1v0.1c-0.1 0.1-0.1 0.3 0 0.4 0.4 0.6 2.7 1.4 7.7 1.4 3.8 0 7.8-0.6 7.8-1.8 0-1.1-4-1.7-7.8-1.7-1.3 0-2.6 0.2-2.9 0.2 0.3-0.5 1.8-2.5 1.8-2.5l-4-0.1zm1.5 4.1c0-0.2 1.4-0.6 3.8-0.6s3.8 0.3 3.8 0.6-1.4 0.6-3.8 0.6c-2.3 0-3.8-0.3-3.8-0.6zm-0.3 5.6c0.7 0 18.8 0.7 19.2-5.8 0.3-5.3-13-4.8-13-4.8-0.1 0-0.1 0-0.1 0.1s0 0.1 0.1 0.1c3.8 0 9.7 1.5 9.6 4.6-0.2 2.6-4.8 5.6-15.7 5.6-0.1 0-0.1 0-0.1 0.1-0.1 0.1-0.1 0.1 0 0.1z"/>
</svg>
