<svg role="img" viewBox="0 0 24 24" xmlns="http://www.w3.org/2000/svg">
<title>Bravia icon</title>
<path d="m21.5 10h0.7l1.8 4h-0.7l-0.4-1h-2.2l-0.4 1h-0.7l1.9-4zm0.3 0.5-0.9 2h1.8l-0.9-2zm-3.7-0.5h0.6v4h-0.6v-4zm-3.5 4h0.7l1.8-4h-0.7l-1.5 3.4-1.4-3.4h-0.7l1.8 4zm-4.4-4h0.8l1.8 4h-0.6l-0.5-1h-2.2l-0.4 1h-0.7l1.8-4zm0.4 0.5-0.9 2h1.8l-0.9-2zm-10.6-0.5h1.6c0.5 0 0.8 0.1 1.1 0.3 0.2 0.1 0.3 0.4 0.3 0.7 0 0.2-0.1 0.4-0.2 0.6s-0.3 0.2-0.6 0.3c0.3 0.1 0.5 0.2 0.7 0.3 0.2 0.2 0.3 0.4 0.3 0.7 0 0.4-0.1 0.6-0.4 0.8s-0.7 0.3-1.2 0.3h-1.6v-4zm0.6 0.5v1.2h0.9c0.3 0 0.5 0 0.6-0.1 0.2-0.1 0.2-0.3 0.2-0.5s-0.1-0.3-0.2-0.4-0.4-0.1-0.6-0.1l-0.9-0.1zm0 1.6v1.5h1c0.3 0 0.6 0 0.7-0.2 0.2-0.1 0.2-0.3 0.2-0.5 0-0.3-0.1-0.4-0.2-0.6-0.1-0.1-0.4-0.2-0.7-0.2h-1zm6.1 0.2 1.2 1.7h-0.8l-1.5-2.1h0.4c0.5 0 0.9-0.2 0.9-0.8 0-0.5-0.4-0.7-0.9-0.7h-0.9v3.6h-0.6v-4h1.5c0.8 0 1.6 0.3 1.6 1.2 0 0.6-0.3 0.9-0.9 1.1z"/>
</svg>
