<?xml version="1.0" encoding="utf-8"?>
<!-- Generator: Adobe Illustrator 18.1.1, SVG Export Plug-In . SVG Version: 6.00 Build 0)  -->
<!DOCTYPE svg PUBLIC "-//W3C//DTD SVG 1.1 Tiny//EN" "http://www.w3.org/Graphics/SVG/1.1/DTD/svg11-tiny.dtd">
<svg version="1.1" baseProfile="tiny" id="Layer_1" xmlns="http://www.w3.org/2000/svg" xmlns:xlink="http://www.w3.org/1999/xlink"
	 x="0px" y="0px" viewBox="0 0 512 512" xml:space="preserve">
<g>
	<path fill="#FFFFFF" d="M364.2,263.5c26.7-0.1,47.8,21.1,47.8,47.8c0,26-21.3,47.3-47.3,47.5c-25.6,0.2-47.8-21.6-48-47.1
		C316.5,285.2,337.9,263.5,364.2,263.5z"/>
	<path fill="#FFFFFF" d="M363.6,140.2c-25.8-0.2-47-21.8-47-47.8c0-25.8,22.8-48.1,48.6-47.5c26.1,0.6,46.9,22,46.7,48.1
		C411.8,119.5,390.4,140.4,363.6,140.2z"/>
	<path fill="#FFFFFF" d="M303.7,311.2c0,26.2-20.9,47.3-47.1,47.6c-25.9,0.3-48.5-22.2-48.2-48c0.2-25.8,21.8-47.3,47.6-47.3
		C282.8,263.4,303.7,284.3,303.7,311.2z"/>
	<path fill="#FFFFFF" d="M303.7,420.2c-0.2,25.5-21.4,46.7-47,46.9c-25.9,0.2-48.5-22.3-48.4-47.9c0.2-26.7,22-47.6,49.4-47.4
		C283.5,372,303.8,393.5,303.7,420.2z"/>
	<path fill="#FFFFFF" d="M195.4,311.7c-0.1,26.1-21.5,47.2-47.5,47c-25.5-0.2-47.5-22-47.9-47.5c-0.3-26,22.4-48,49.3-47.8
		C175.1,263.7,195.5,285.1,195.4,311.7z"/>
	<path fill="#FFFFFF" d="M256.5,154.8c26.8,0.1,47.2,20.3,47.2,46.7c0,26.8-20.9,47.7-47.6,47.6c-26.3-0.1-48-21.9-47.7-48
		C208.6,175.4,230,154.8,256.5,154.8z"/>
</g>
</svg>
