<svg role="img" viewBox="0 0 24 24" xmlns="http://www.w3.org/2000/svg">
<title>Stan icon</title>
<path d="m17.1 12.4c1.3 0 2.3 1 2.3 2.3 0 1.2-1 2.2-2.2 2.3-1.2 0-2.3-1-2.3-2.2 0-1.4 1-2.4 2.2-2.4zm0-5.9c-1.2 0-2.2-1-2.2-2.3 0-1.2 1.1-2.2 2.3-2.2s2.2 1 2.2 2.3c0 1.2-1 2.2-2.3 2.2zm-2.8 8.1c0 1.2-1 2.2-2.2 2.3-1.2 0-2.3-1.1-2.3-2.3s1-2.2 2.3-2.2c1.2 0 2.2 0.9 2.2 2.2zm0 5.2c0 1.2-1 2.2-2.2 2.2s-2.3-1.1-2.3-2.3c0-1.3 1-2.3 2.3-2.2 1.2 0 2.2 1 2.2 2.3zm-5.2-5.2c0 1.2-1 2.2-2.3 2.2-1.2 0-2.3-1-2.3-2.3 0-1.2 1.1-2.3 2.3-2.3 1.4 0.2 2.3 1.2 2.3 2.4zm2.9-7.4c1.3 0 2.2 1 2.2 2.2 0 1.3-1 2.3-2.3 2.3-1.2 0-2.3-1-2.3-2.3 0.2-1.2 1.2-2.2 2.4-2.2z"/>
</svg>
