<svg role="img" viewBox="0 0 24 24" xmlns="http://www.w3.org/2000/svg">
<title>Google Play Music icon</title>
<path d="m3.2 12c0-3.9 2.6-7.1 6.2-8.1l-5.5-3.1c-0.7-0.4-1.4-0.4-1.8 0-0.3 0.3-0.4 0.7-0.4 1.3v19.8c0 0.6 0.2 1 0.4 1.3 0.4 0.4 1.1 0.4 1.8 0l5.5-3.1c-3.5-1-6.2-4.2-6.2-8.1zm18.2-1.3-1.7-1c0.2 0.7 0.3 1.5 0.3 2.3s-0.1 1.5-0.3 2.3l1.7-1c1.2-0.7 1.2-1.9 0-2.6zm-2.1-0.9c-0.9-3.3-4-5.8-7.7-5.8-0.7 0-1.4 0.1-2.1 0.3-3.4 0.9-5.9 4-5.9 7.7s2.5 6.8 5.9 7.7l9.7-5.5c0.2-0.7 0.3-1.4 0.3-2.1 0-0.9-0.1-1.6-0.2-2.3zm-7.6 7.3c-2.9 0-5.2-2.3-5.2-5.2s2.3-5.2 5.2-5.2 5.2 2.3 5.2 5.2-2.4 5.2-5.2 5.2zm-0.1-4.6c-0.2-0.1-0.4-0.2-0.6-0.2-0.7 0-1.2 0.6-1.2 1.2 0 0.7 0.6 1.2 1.2 1.2 0.7 0 1.3-0.6 1.3-1.2v-3h1.2v-1.2h-1.8l-0.1 3.2z"/>
</svg>
