<?xml version="1.0" encoding="utf-8"?>
<!-- Generator: Adobe Illustrator 19.2.1, SVG Export Plug-In . SVG Version: 6.00 Build 0)  -->
<svg version="1.1" id="Layer_1" xmlns="http://www.w3.org/2000/svg" xmlns:xlink="http://www.w3.org/1999/xlink" x="0px" y="0px"
	 viewBox="0 0 1000 1000" style="enable-background:new 0 0 1000 1000;" xml:space="preserve">
<g>
	<g>
		<path style="fill:#FFFFFF;" d="M723.9,175.3C631,175.3,548,224.5,500,296.4c-48.1-71.9-131.1-121.1-223.9-121.1
			C128,175.3,8.2,295.3,8.2,443.2c0,93.9,59.5,161.6,121.6,224.2l242.9,229.6c12.8,12,33.7,3,33.7-14.6V703.8
			c0-51.7,41.9-93.8,93.6-93.9c51.7,0.1,93.6,42.1,93.6,93.9v179c0,17.5,20.9,26.5,33.7,14.6l242.9-229.6
			C932.6,605.1,992,537.3,992,443.5C991.9,295.3,872,175.3,723.9,175.3z M256.7,649.9c-3.7,4.1-8.7,6.3-13.9,6.3
			c-4.4,0-8.7-1.6-12.3-4.7c-80-70.9-120.5-144.9-120.5-220v-0.9c0-64.5,39.4-137.9,91.6-170.6c8.7-5.5,20.2-2.8,25.7,5.8
			c5.5,8.6,2.8,20.2-5.8,25.5c-41.6,26.1-74.2,87.3-74.2,139.2v0.9c0,64,36.4,128.7,108.1,192.2
			C262.9,630.5,263.5,642.2,256.7,649.9z M376.2,581c-3.4,6-9.7,9.5-16.2,9.5c-3.1,0-6.2-0.8-9.1-2.4c-54.2-30.4-90.7-90.1-91-148.6
			V439c0.2-55.7,30.9-106.4,80.3-132.3c9.1-4.8,20.3-1.2,25.1,7.8c4.8,9.1,1.3,20.3-7.8,25.1c-37.2,19.6-60.4,57.8-60.5,99.7
			c0.1,45.7,29,92.4,72,116.5C378,560.7,381.1,572,376.2,581z M500,533.5c-44.5,0-80.5-36.1-80.5-80.5s36.1-80.5,80.5-80.5
			c44.5,0,80.5,36.1,80.5,80.5S544.5,533.5,500,533.5z M649.1,588.1c-2.9,1.6-5.9,2.4-9.1,2.4c-6.5,0-12.8-3.5-16.2-9.5
			c-5-9-1.8-20.3,7.2-25.3c43-24.1,71.9-70.9,72-116.5c-0.1-42-23.2-80.2-60.5-99.7c-9.1-4.8-12.5-16-7.8-25.1
			c4.8-9.1,16-12.5,25.1-7.8c49.4,26,80.1,76.6,80.3,132.3v0.6C739.8,498.1,703.3,557.7,649.1,588.1z M890,431.5
			c0,75-40.5,149.1-120.6,220c-3.6,3.1-8,4.7-12.3,4.7c-5.2,0-10.2-2.1-13.9-6.3c-6.8-7.6-6-19.4,1.6-26.2
			c71.7-63.5,108.1-128.3,108.1-192.2v-0.9c0-52-32.6-113.1-74.2-139.2c-8.7-5.5-11.3-16.9-5.8-25.5c5.5-8.7,16.9-11.3,25.7-5.8
			c52.2,32.7,91.6,106.1,91.6,170.6L890,431.5L890,431.5z"/>
	</g>
</g>
</svg>
