<svg role="img" viewBox="0 0 24 24" xmlns="http://www.w3.org/2000/svg">
<title>iHeartRadio icon</title>
<path d="m17.2 3.5c-2.2 0-4.1 1.2-5.2 2.8-1.1-1.7-3.1-2.8-5.2-2.8-3.5 0-6.3 2.8-6.3 6.3 0 2.2 1.4 3.8 2.8 5.2l5.7 5.4c0.3 0.3 0.8 0.1 0.8-0.3v-4.2c0-1.2 1-2.2 2.2-2.2s2.2 1 2.2 2.2v4.1c0 0.4 0.5 0.6 0.8 0.3l5.7-5.4c1.5-1.5 2.8-3.1 2.8-5.2 0-3.4-2.8-6.2-6.3-6.2zm-10.9 11.1c-0.1 0.1-0.2 0.1-0.3 0.1s-0.2 0-0.3-0.1c-1.9-1.6-2.8-3.4-2.8-5.1 0-1.5 0.9-3.2 2.1-4 0.2-0.1 0.5-0.1 0.6 0.1s0.1 0.5-0.1 0.6c-1 0.6-1.7 2-1.7 3.3 0 1.5 0.9 3 2.5 4.5 0.2 0.1 0.2 0.4 0 0.6zm2.8-1.6c-0.1 0.1-0.2 0.2-0.4 0.2-0.1 0-0.1 0-0.2-0.1-1.3-0.7-2.1-2.1-2.1-3.4s0.7-2.5 1.9-3.1c0.2-0.1 0.5 0 0.6 0.2s0 0.4-0.2 0.5c-0.9 0.5-1.4 1.4-1.4 2.4 0 1.1 0.7 2.2 1.7 2.7 0.1 0.1 0.2 0.4 0.1 0.6zm2.9-1.1c-1 0-1.9-0.8-1.9-1.9s0.9-1.9 1.9-1.9 1.9 0.8 1.9 1.9-0.9 1.9-1.9 1.9zm3.5 1.2c-0.1 0-0.1 0.1-0.2 0.1-0.2 0-0.3-0.1-0.4-0.2-0.1-0.2 0-0.5 0.2-0.6 1-0.6 1.7-1.7 1.7-2.7s-0.5-1.9-1.4-2.3c-0.3-0.2-0.4-0.4-0.3-0.7 0.1-0.2 0.4-0.3 0.6-0.2 1.2 0.6 1.9 1.8 1.9 3.1 0 1.4-0.8 2.8-2.1 3.5zm5.6-3.6c0 1.8-0.9 3.5-2.8 5.1-0.1 0.1-0.2 0.1-0.3 0.1s-0.2 0-0.3-0.1c-0.2-0.2-0.1-0.5 0-0.6 1.7-1.5 2.5-3 2.5-4.5 0-1.2-0.8-2.6-1.7-3.3-0.2-0.1-0.3-0.4-0.1-0.6 0.1-0.2 0.4-0.3 0.6-0.1 1.2 0.7 2.1 2.5 2.1 4z"/>
</svg>
