<svg viewBox="0 0 512 512" xml:space="preserve" xmlns="http://www.w3.org/2000/svg">
<path d="m169.5 199.5c0-26.8 0.1-53.6-0.1-80.4-0.1-8.9 3.1-15.6 9.5-21.9 21.2-20.7 42-41.9 62.9-62.9 10.8-10.9 18.4-10.9 29.2 0 22.9 22.8 45.8 45.8 68.6 68.7 10.7 10.8 10.7 18.5-0.1 29.4-52.4 52.5-104.8 105.1-157.2 157.5-0.8 0.8-1.6 1.7-2.6 2.5-4.4 3.5-7.8 2.5-9.5-3-0.8-2.6-0.9-5.3-0.9-8 0.3-27.4 0.3-54.7 0.2-81.9 0.1 0 0 0 0 0zm309.5 43.1c-23.7-23.8-47.4-47.6-71.1-71.3-8.6-8.6-17-8.5-25.7 0.1-24 23.9-48 47.9-71.8 72-9 9.1-8.9 17.3 0.1 26.4 23.8 23.9 47.6 47.8 71.5 71.6 9 9 17.3 8.9 26.4-0.1 8.2-8.1 16.2-16.2 24.3-24.3 15.4-15.4 30.8-30.8 46.1-46.2 3.8-3.8 7.6-7.8 7.5-14.5 0.6-5.6-3.3-9.8-7.3-13.7zm-208.8 237.2c24.5-24.4 48.9-48.8 73.2-73.4 7.4-7.5 7.3-15.5 0.5-23.4-1.1-1.3-2.3-2.5-3.5-3.7-22.7-22.8-45.5-45.6-68.2-68.4-10.6-10.6-18.3-10.6-28.9 0.1-23 23-46 46.1-69 69.1-10.6 10.6-10.6 18.2-0.1 28.9 20 20.1 40 40.1 60 60.2 4.2 4.2 8.3 8.4 12.6 12.3 2.9 2.6 6.1 4.9 10.4 4.3 5.7 0.5 9.5-2.5 13-6zm-158.3-223.4v-75.4c0-3.4-0.1-7.1-3.7-8.8-3.9-1.8-5.7 1.8-7.9 4-22.9 23.1-45.8 46.3-68.7 69.5-8.1 8.3-8.2 14.3 0 22.5 23 23.1 46 46.1 69 69.2 0.8 0.8 1.6 1.7 2.6 2.5 3.6 2.9 5.9 2.3 7.7-2 1.2-2.9 1.1-5.9 1.1-9v-72.4c0-0.1 0-0.1-0.1-0.1z"/>
</svg>
