<svg role="img" viewBox="0 0 24 24" xmlns="http://www.w3.org/2000/svg">
<title>Amazon Prime Video icon</title>
<path d="m12.4 22.5h-0.7c-0.3 0-0.6 0-0.9-0.1-0.8-0.1-1.6-0.2-2.4-0.4-2.7-0.6-5.1-1.9-7.2-3.7-0.2-0.1-0.4-0.3-0.6-0.5 0 0-0.1-0.1-0.1-0.2v-0.2c0.1-0.1 0.1-0.1 0.2-0.1s0.1 0 0.1 0.1c2 1.2 4.2 2.1 6.4 2.7 0.8 0.2 1.5 0.3 2.3 0.4 1.1 0.1 2.2 0.2 3.4 0.2 0.6 0 1.2-0.1 1.8-0.2 1.4-0.2 2.8-0.5 4.1-0.9 0.7-0.2 1.4-0.5 2.1-0.8 0.1-0.1 0.2-0.1 0.3 0 0.2 0 0.3 0.2 0.3 0.4v0.1c0 0.1-0.1 0.2-0.2 0.2-0.6 0.5-1.3 0.9-2 1.3-1.3 0.7-2.8 1.2-4.3 1.4-0.9 0.2-1.8 0.3-2.6 0.3zm9.5-5.4c0.4 0 0.7 0 1.1 0.1 0.1 0 0.2 0.1 0.3 0.1 0.1 0.1 0.2 0.2 0.2 0.3v0.5c-0.1 0.9-0.4 1.9-0.9 2.7-0.2 0.3-0.4 0.6-0.6 0.8-0.1 0.1-0.1 0.1-0.2 0.1s-0.2 0-0.2-0.1v-0.2c0.2-0.5 0.4-1 0.5-1.6 0.1-0.3 0.2-0.6 0.2-0.9v-0.3c0-0.2-0.1-0.3-0.3-0.4s-0.3-0.1-0.5-0.1c-0.5 0-1 0-1.5 0.1l-0.7 0.1c-0.1 0-0.1 0-0.2-0.1v-0.2c0-0.1 0.1-0.1 0.2-0.2 0.4-0.3 0.9-0.5 1.4-0.6 0.4 0 0.8-0.1 1.2-0.1zm-6.4-13.2c0.1-0.1 0.3-0.2 0.4-0.3 0.4-0.2 0.8-0.3 1.3-0.3 0.3 0 0.6 0.1 0.8 0.3s0.3 0.5 0.3 0.8v0.2 2.9c0 0.3 0 0.3-0.3 0.3h-0.7-0.1c-0.1 0-0.1-0.1-0.1-0.1v-0.2-2.6-0.3c0-0.2-0.2-0.3-0.4-0.3-0.3 0-0.7 0-1 0.2l-0.1 0.1v2.9 0.2c0 0.1-0.1 0.1-0.1 0.1h-0.3-0.6c-0.2 0-0.3-0.1-0.3-0.3v-2.5-0.3c0-0.2-0.2-0.3-0.4-0.3-0.3 0-0.7 0-1 0.2l-0.1 0.1v3c0 0.2 0 0.3-0.3 0.3h-0.5c-0.2 0-0.2-0.1-0.2-0.2v-4.1-0.1c0-0.1 0.1-0.1 0.2-0.1h0.7c0.1 0 0.2 0.1 0.2 0.2s0 0.2 0.1 0.2 0.1 0 0.1-0.1c0.3-0.2 0.6-0.3 1-0.4 0.3-0.1 0.6-0.1 0.8 0s0.4 0.2 0.6 0.5zm-8.1 0.2s0.1 0 0 0l0.4-0.4c0.3-0.2 0.7-0.3 1-0.3 0.2 0 0.2 0.1 0.2 0.2v0.6 0.2c0 0.1 0 0.2-0.1 0.2h-0.2c-0.4 0-0.7 0-1.1 0.2-0.1 0-0.1 0.1-0.1 0.1v2.7 0.1c0 0.1-0.1 0.1-0.1 0.1h-0.1-0.8-0.1c-0.1 0-0.1-0.1-0.1-0.1v-0.1-3.8c0-0.3 0-0.3 0.3-0.3h0.5c0.1 0 0.2 0.1 0.3 0.2-0.1 0.1 0 0.3 0 0.4zm2.1 1.6v-2c0-0.1 0.1-0.2 0.2-0.2h0.9c0.1 0 0.2 0 0.2 0.2v0.1 3.7 0.2c0 0.1-0.1 0.1-0.1 0.1h-0.1-0.9-0.1c-0.1 0-0.1-0.1-0.2-0.1v-0.1c0.1-0.7 0.1-1.3 0.1-1.9zm0.7-4.2h0.3c0.3 0.1 0.5 0.4 0.4 0.7 0 0.3-0.2 0.5-0.5 0.6h-0.4c-0.3-0.1-0.5-0.3-0.5-0.7s0.3-0.6 0.7-0.6zm-4.8 3.7c0-0.3-0.1-0.6-0.2-0.8-0.2-0.5-0.6-0.8-1.1-1-0.6-0.1-1.2 0-1.7 0.4l-0.1 0.1v-0.2c0-0.1-0.1-0.2-0.3-0.2h-0.5c-0.1 0-0.2 0-0.3 0.1v5.9c0.1 0.1 0.2 0.1 0.3 0.1h0.6c0.4 0 0.4 0 0.4-0.3v-1.6-0.1c0.3 0.2 0.6 0.4 1 0.4s0.8-0.1 1.2-0.5c0.3-0.2 0.5-0.6 0.6-0.9 0.1-0.5 0.1-0.9 0.1-1.4zm-1.3 1.2c0 0.2-0.1 0.3-0.3 0.4-0.1 0.1-0.3 0.2-0.5 0.2-0.3 0-0.6 0-0.8-0.2-0.1 0-0.1-0.1-0.1-0.2v-1-1c0-0.1 0-0.1 0.1-0.2 0.3-0.1 0.6-0.2 1-0.1 0.2 0 0.4 0.2 0.5 0.4s0.1 0.4 0.1 0.6c0.1 0.4 0.1 0.7 0 1.1zm16.3-0.4c0.4 0.1 0.8 0.1 1.3 0 0.2 0 0.5-0.1 0.7-0.2 0.3-0.1 0.4-0.3 0.5-0.6 0.1-0.7-0.2-1.4-0.9-1.7-0.4-0.1-0.7-0.2-1.1-0.1-0.9 0.1-1.4 0.6-1.7 1.4-0.2 0.6-0.2 1.2 0 1.8 0.2 0.7 0.7 1.2 1.4 1.3 0.4 0.1 0.9 0.1 1.3 0 0.2 0 0.4-0.1 0.7-0.2 0.1-0.1 0.2-0.1 0.2-0.3v-0.4c0-0.2-0.1-0.2-0.2-0.2s-0.4 0.1-0.6 0.2c-0.3 0.1-0.7 0.1-1 0-0.5-0.1-0.8-0.5-0.7-1h0.1zm-0.2-0.8c0-0.1 0.1-0.3 0.1-0.4 0.2-0.4 0.5-0.5 0.9-0.5 0.1 0 0.2 0 0.3 0.1l0.3 0.3v0.3c-0.1 0.2-0.2 0.3-0.4 0.3h-0.4c-0.2 0-0.5 0-0.8-0.1v0zm-16.3 9.4c0-0.1 0.1-0.2 0.1-0.3 0.3-0.9 0.5-1.7 0.8-2.6v-0.1c0-0.1 0.1-0.2 0.2-0.2h0.8c0.2 0 0.3 0.1 0.2 0.3l-0.3 0.9c-0.4 1-0.7 1.9-1.1 2.9v0.1c0 0.1-0.2 0.2-0.3 0.2h-0.7c-0.2 0-0.3-0.1-0.3-0.2-0.1-0.4-0.3-0.7-0.4-1.1-0.3-0.9-0.7-1.7-1-2.6 0-0.1-0.1-0.1-0.1-0.2s0-0.2 0.1-0.2h0.9c0.1 0 0.2 0.1 0.2 0.2 0.1 0.2 0.1 0.4 0.2 0.6 0.2 0.8 0.4 1.5 0.7 2.3zm3.9-1v2c0 0.1-0.1 0.2-0.2 0.2h-0.9c-0.1 0-0.2-0.1-0.2-0.2v-0.1-3.8c0-0.2 0.1-0.2 0.2-0.2h0.8c0.2 0 0.2 0.1 0.2 0.2l0.1 1.9zm-0.6-4.1c0.1 0 0.2 0 0.3 0.1 0.2 0 0.4 0.2 0.4 0.4 0 0.5-0.3 0.8-0.7 0.7h-0.2c-0.3-0.1-0.5-0.3-0.5-0.7 0-0.3 0.3-0.5 0.6-0.6 0 0.1 0 0.1 0.1 0.1zm15.1 3.8v0-0.1-0.1c0-0.1 0-0.2-0.1-0.3-0.2-0.7-0.7-1.2-1.4-1.4-0.3-0.1-0.7-0.1-1.1 0-0.7 0.1-1.3 0.5-1.5 1.2-0.3 0.7-0.3 1.4 0 2.1 0.2 0.6 0.7 1 1.3 1.2 0.3 0.1 0.7 0.1 1 0.1 1.2-0.1 1.6-1 1.7-1.8v-0.2-0.1-0.6h0.1zm-1.3 1c0 0.1-0.1 0.2-0.2 0.3-0.1 0.2-0.3 0.3-0.5 0.3h-0.3c-0.2 0-0.4-0.2-0.5-0.4s-0.1-0.4-0.2-0.5v-1c0-0.1 0.1-0.3 0.2-0.4 0.1-0.2 0.3-0.3 0.6-0.3h0.3c0.2 0 0.4 0.2 0.5 0.4s0.2 0.4 0.2 0.6v0.3c0 0.3-0.1 0.5-0.1 0.7zm-8.4-4.8h-0.8c-0.2 0-0.3 0-0.3 0.3v1.8 0.1c-0.1 0-0.1 0-0.1-0.1-0.6-0.3-1.2-0.4-1.8-0.1-0.4 0.2-0.7 0.6-0.9 1s-0.2 0.8-0.2 1.3c0 0.4 0.1 0.8 0.3 1.2s0.5 0.7 1 0.8c0.6 0.2 1.2 0.1 1.7-0.3l0.1-0.1c0 0.1 0.1 0.1 0.1 0.2s0.1 0.2 0.2 0.2h0.1 0.6c0.2 0 0.2-0.1 0.2-0.2v-5.9c0-0.2 0-0.2-0.2-0.2zm-1 4.1v1c0 0.1 0 0.1-0.1 0.2-0.3 0.2-0.6 0.2-0.9 0.2s-0.5-0.2-0.6-0.4-0.1-0.4-0.2-0.6c0-0.3 0-0.7 0.1-1 0-0.1 0.1-0.2 0.1-0.3 0.1-0.2 0.3-0.4 0.6-0.4s0.6 0 0.9 0.2c0.1 0 0.1 0.1 0.1 0.2v0.9zm4.3 0.4c0.3 0 0.6-0.1 0.9-0.2s0.5-0.4 0.6-0.7v-0.6c-0.1-0.5-0.4-0.8-0.9-1-0.3-0.1-0.5-0.1-0.8-0.1-0.9 0-1.6 0.5-1.9 1.4-0.2 0.6-0.2 1.2 0 1.9 0.2 0.6 0.6 1 1.3 1.2 0.3 0.1 0.6 0.1 0.8 0.1 0.4 0 0.8-0.1 1.2-0.2 0.2-0.1 0.2-0.1 0.2-0.3v-0.5c0-0.2-0.1-0.2-0.2-0.2s-0.2 0.1-0.4 0.1c-0.4 0.1-0.8 0.1-1.1 0-0.4-0.1-0.6-0.3-0.7-0.7 0-0.1-0.1-0.2-0.1-0.3h0.1c0.3 0.1 0.7 0.1 1 0.1zm-1.1-0.9c0-0.2 0.1-0.4 0.2-0.6 0.2-0.3 0.5-0.3 0.8-0.3h0.1c0.4 0.1 0.5 0.4 0.4 0.7-0.1 0.2-0.2 0.3-0.4 0.3h-0.3c-0.3 0.1-0.5 0-0.8-0.1v0z"/>
</svg>
