<?xml version="1.0" encoding="utf-8"?>
<!-- Generator: Adobe Illustrator 18.1.1, SVG Export Plug-In . SVG Version: 6.00 Build 0)  -->
<!DOCTYPE svg PUBLIC "-//W3C//DTD SVG 1.1//EN" "http://www.w3.org/Graphics/SVG/1.1/DTD/svg11.dtd">
<svg version="1.1" id="Layer_1" xmlns="http://www.w3.org/2000/svg" xmlns:xlink="http://www.w3.org/1999/xlink" x="0px" y="0px"
	 viewBox="288.1 0.8 512 512" enable-background="new 288.1 0.8 512 512" xml:space="preserve">
<g>
	<path fill="#00A8E1" d="M552,490c-4.9-0.1-9.7-0.1-14.6,0c-6.7-0.4-13.4-0.6-20-1.1c-17.7-1.3-35.3-4-52.6-8
		c-59.6-13.8-111.9-41.6-157.6-82.1c-4.2-3.8-8.3-7.6-12.4-11.5c-1-0.8-1.8-2.1-2.3-3.3c-0.7-1.7-0.4-3.5,0.8-4.9
		c1.2-1.3,3.2-1.8,4.9-1.1c1.1,0.5,2.2,1,3.2,1.6c43.6,27,91.2,46.6,141.1,58.3c16.8,3.9,33.6,6.9,50.6,9.1c24.4,3,49,4.1,73.6,3.3
		c13.2-0.4,26.3-1.6,39.5-3.3c30.6-3.9,60.8-10.8,90.1-20.5c15.4-5.1,30.5-10.9,45.2-17.7c2.2-1.2,4.9-1.6,7.3-1
		c4,1,6.4,5.1,5.5,9.1c-0.1,0.5-0.4,1.1-0.6,1.6c-1,1.8-2.3,3.4-4,4.6c-14,10.9-29,20.5-44.9,28.5c-30,15.2-62,26-95.1,32.2
		C590.5,487.2,571.3,489.3,552,490z"/>
	<path fill="#00A8E1" d="M760.7,371.6c8,0.2,15.9,0.7,23.7,2.8c2.2,0.6,4.2,1.3,6.3,2.3c2.8,1.1,4.6,3.8,5,6.7
		c0.5,3.4,0.6,6.9,0.4,10.4c-1.6,20.8-8,40.8-18.7,58.6c-3.9,6.4-8.6,12.3-14.1,17.4c-1.1,1.1-2.4,1.9-3.9,2.4
		c-2.3,0.6-3.8-0.6-3.9-2.9c0.1-1.2,0.4-2.4,0.8-3.6c4.2-11.4,8.4-22.7,11.7-34.5c1.9-6.4,3.3-13,4.1-19.7c0.2-2.4,0.4-4.9,0.1-7.3
		c-0.1-4.1-2.8-7.6-6.8-8.9c-3.8-1.2-7.6-1.9-11.7-2.2c-11.2-0.5-22.3,0-33.4,1.5l-14.7,1.8c-1.6,0.1-3,0-3.9-1.5s-0.5-2.9,0.4-4.4
		c1-1.3,2.2-2.5,3.6-3.4c9-6.4,19.1-10.3,29.7-12.9C743.8,372.7,752.2,371.9,760.7,371.6z"/>
</g>
<g>
	<path fill="#00A8E1" d="M621.5,82c3-1.8,6.2-3.8,9.5-5.5c8.5-4.4,18-6.6,27.6-6.1c6.9,0.4,13.2,2.3,18.1,7.4
		c4.6,4.7,6.3,10.6,6.8,16.9c0.1,1.3,0.1,2.7,0.1,4.1v62.9c0,5.5-0.7,6.2-6.2,6.2h-14.8c-1,0-1.9,0-2.9-0.1
		c-1.5-0.1-2.7-1.3-2.9-2.8c-0.2-1.3-0.2-2.7-0.2-4v-56.2c0.1-2.3-0.1-4.5-0.7-6.7c-1-3.8-4.4-6.4-8.3-6.7c-7.2-0.5-14.3,1-20.9,4
		c-1,0.2-1.6,1.2-1.5,2.2v63.9c0,1.2,0,2.3-0.2,3.5c0,1.7-1.3,2.9-3,2.9l0,0c-1.8,0.1-3.6,0.1-5.6,0.1h-12.9c-4.5,0-5.5-1.1-5.5-5.6
		v-57.4c0-2.1-0.1-4.2-0.6-6.3c-0.8-4.1-4.4-7-8.5-7.3c-7.3-0.5-14.7,1-21.2,4.1c-1,0.2-1.6,1.3-1.3,2.3v64.7c0,4.5-1,5.5-5.5,5.5
		h-16.3c-4.2,0-5.3-1.2-5.3-5.3V78.5c0-1,0.1-1.9,0.4-2.9c0.5-1.5,1.9-2.3,3.4-2.3h15.2c2.2,0,3.5,1.3,4.2,3.4
		c0.6,1.7,1,3.3,1.6,5.1c1.2,0,1.9-0.8,2.8-1.3c6.7-4.1,13.7-7.6,21.6-9.1c6.1-1.2,12.1-1.2,18.2,0c5.7,1.2,10.8,4.6,14.1,9.5
		c0.2,0.4,0.5,0.6,0.7,0.8C621.2,81.8,621.3,81.8,621.5,82z"/>
	<path fill="#00A8E1" d="M443.4,86.3c0.9-0.2,1.6-0.7,2.1-1.5c2.2-2.2,4.5-4.3,7-6.3c6.4-4.9,14.3-7.4,22.3-6.7
		c3.2,0.1,4.3,1.1,4.5,4.2c0.2,4.2,0.1,8.5,0.1,12.6c0.1,1.7,0,3.3-0.2,5c-0.5,2.2-1.3,3.1-3.6,3.3c-1.7,0.1-3.3,0-5-0.1
		c-8.2-0.7-16.2,0.9-23.9,3.4c-1.7,0.6-1.7,1.8-1.7,3.2v58.9c0,1.1,0,2.1-0.1,3.2c-0.1,1.6-1.3,2.8-2.9,2.8
		c-0.9,0.1-1.8,0.1-2.7,0.1h-15.9c-0.9,0-1.8,0-2.7-0.1c-1.6-0.1-2.8-1.5-2.9-3.1c-0.1-1-0.1-2-0.1-2.9V79c0-5.6,0.6-6.3,6.3-6.3
		h11.8c3.2,0,4.7,1.1,5.5,4.2C441.9,80,442.7,83,443.4,86.3z"/>
	<path fill="#00A8E1" d="M489.4,120.4V77.3c0.1-2.9,1.2-4,4.1-4.1c6.3-0.1,12.6-0.1,18.9,0c2.8,0,3.6,0.8,3.9,3.6
		c0.1,1.1,0.1,2.1,0.1,3.2v80.9c0,1.3-0.1,2.7-0.2,4c-0.1,1.6-1.3,2.7-2.9,2.8c-0.7,0.1-1.3,0.1-2.1,0.1h-16.9c-0.6,0-1.1,0-1.7-0.1
		c-1.7-0.1-3.2-1.5-3.3-3.2c-0.1-1-0.1-1.9-0.1-2.9C489.4,148.1,489.4,134.2,489.4,120.4z"/>
	<path fill="#00A8E1" d="M505.4,28.8c2-0.1,3.9,0.2,5.8,0.9c6.6,2.2,10.1,8,9.4,15.4c-0.5,6.4-5.3,11.5-11.6,12.5
		c-2.7,0.5-5.5,0.5-8.2,0c-7-1.3-12.1-6.5-11.6-15.3C489.9,33.6,495.6,28.8,505.4,28.8z"/>
	<path fill="#00A8E1" d="M399.4,110.4c-0.5-6.4-2.2-12.6-4.8-18.4c-5-10.5-12.8-18.3-24.5-21c-13.5-2.9-25.6,0-36.7,8.2
		c-0.7,0.7-1.6,1.3-2.6,1.8c-0.2-0.1-0.5-0.2-0.5-0.4c-0.4-1.2-0.6-2.5-1-3.7c-1-3.1-2.2-4.2-5.5-4.2c-3.7,0-7.5,0.1-11.2,0
		c-2.8-0.1-5.4,0.2-7.4,2.5c0,42.9,0,86,0.1,128.7c1.6,2.6,4,3.1,6.9,2.9c4.4-0.1,8.8,0,13.2,0c7.7,0,7.7,0,7.7-7.6v-34.9
		c0-0.9-0.4-1.8,0.5-2.6c6.1,4.8,13.6,7.7,21.3,8.5c10.8,1.1,20.6-1.6,28.8-9c6-5.5,10.4-12.6,12.8-20.5
		C400,130.9,400.2,120.7,399.4,110.4z M370.1,135.8c-0.9,3.8-2.8,7.2-5.6,9.8c-3.2,2.7-7.1,4.3-11.3,4.3c-6.3,0.4-12.4-1-17.9-3.9
		c-1.3-0.6-2.2-2-2.1-3.4v-22.2c0-7.4,0.1-14.7,0-22.1c-0.1-1.7,0.9-3.2,2.5-3.8c6.7-3.2,13.7-4.7,21.1-3.2c5.1,0.7,9.6,4,11.6,8.8
		c1.8,3.9,2.9,8.2,3.2,12.5C372.3,120.4,372.3,128.3,370.1,135.8z"/>
	<path fill="#00A8E1" d="M727.8,128.3c9.1,1.7,18.5,1.8,27.6,0.4c5.3-0.7,10.4-2.3,15.2-4.9c5.5-3.2,9.5-7.5,11.2-13.6
		c4.2-15.3-2.3-30.7-18.2-36.4c-7.8-2.5-16-3.4-24.2-2.3c-19.2,2.2-31.7,12.7-37.4,31.1c-4,12.5-3.5,25.3-0.2,37.9
		c4.2,16.1,14.9,25.7,31.1,29.1c9.2,2.1,18.6,1.7,27.8,0.2c4.9-0.8,9.7-2.1,14.3-3.9c2.8-1.1,4.2-2.8,4.1-5.9c-0.1-2.9,0-5.9,0-9
		c0-3.6-1.5-4.7-5-3.9c-3.5,0.8-6.9,1.6-10.4,2.3c-7.5,1.6-15.3,1.6-22.8,0.2c-10.3-2.1-17-10.9-16.4-21.9
		C725.5,127.9,726.7,128.1,727.8,128.3z M724.8,109.7c0.4-2.9,1.2-5.7,2.3-8.4c3.6-8.9,11.3-11.9,19.1-11.4c2.2,0.1,4.4,0.6,6.4,1.5
		c3.2,1.3,5.2,4.2,5.6,7.6c0.4,2.1,0.2,4.2-0.4,6.3c-1.5,4.4-5,6.2-9.2,7c-2.5,0.6-5.2,0.8-7.9,0.6c-4.7,0-9.6-0.4-14.3-1.1
		C724.5,111.7,724.5,111.7,724.8,109.7z"/>
</g>
<g>
	<path fill="#FFFFFF" d="M366.2,316.6c0.7-2.4,1.5-4.7,2.2-7.2c5.6-18.8,11.2-37.5,16.8-56.3l0.7-2.2c0.6-2.2,2.7-3.5,4.9-3.5h18.5
		c4.6,0,5.6,1.3,4,5.7l-7.3,19.3c-8.1,21.1-16.3,42.4-24.4,63.5c-0.2,0.7-0.6,1.5-0.8,2.2c-0.8,2.5-3.4,4.2-6.1,4
		c-5.3-0.1-10.7-0.1-16,0c-3.8,0.1-5.9-1.6-7.3-5c-3-8-6.2-16.1-9.2-24.2c-7.3-19.1-14.7-38.1-22-57.3c-0.7-1.5-1.2-3.2-1.6-4.7
		c-0.4-2.4,0.5-3.6,2.9-3.6c6.9-0.1,13.8,0,20.6,0c2.9,0,4.2,1.9,5,4.5c1.3,4.6,2.7,9.3,4.1,14c5,16.9,9.8,33.9,14.8,50.7
		C365.8,316.6,365.9,316.6,366.2,316.6z"/>
	<path fill="#FFFFFF" d="M452.1,294.8v43.7c-0.2,2.4-1.3,3.5-3.8,3.6c-6.6,0.1-13,0.1-19.5,0c-2.4,0-3.5-1.2-3.8-3.5
		c-0.1-0.7-0.1-1.6-0.1-2.3v-84c0.1-3.8,1.1-4.9,4.9-4.9h17.5c3.8,0,4.9,1.1,4.9,4.9L452.1,294.8L452.1,294.8z"/>
	<path fill="#FFFFFF" d="M438.6,203.9c2.4-0.2,4.9,0.2,7.2,1.2c4.7,1.8,8,6.2,8.3,11.3c1,11-6.4,16.6-16.3,16.4
		c-1.3,0-2.7-0.2-4-0.5c-7.5-1.8-11.4-7.6-10.7-16c0.6-6.7,5.8-11.7,13-12.3C436.9,203.9,437.8,203.7,438.6,203.9z"/>
	<path fill="#FFFFFF" d="M769.8,287.3v0.5c-0.5-0.5-0.7-1.2-0.5-1.8v-1c0,0,0-0.1,0.1-0.1h-0.1v-1.2h0.2c0-0.1-0.1-0.1-0.1-0.2
		c-0.2-2.3-0.7-4.6-1.3-6.8c-4.5-16-14.6-26.6-31-30.7c-7.6-1.8-15.4-2.1-23.2-0.8c-16.4,2.4-28.2,11.2-33.9,26.7
		c-5.6,14.8-5.5,31.1,0.1,45.9c4.9,13.5,14.6,22,28.5,25.5c7.4,1.8,15.2,2.3,22.8,1.2c25.5-3,36.1-22.3,37.8-39.1h-0.1v-1.7
		c-0.1-0.7-0.2-1.3,0.5-1.8v0.2c0-0.1,0.1-0.4,0.2-0.5v-14C769.9,287.4,769.8,287.4,769.8,287.3z M740.7,310.3
		c-0.7,2.5-1.8,4.9-3.4,7c-2.7,3.8-6.9,6.2-11.5,6.6c-2.3,0.2-4.6,0.2-6.9-0.2c-5.1-1-9.3-4.4-11.4-9.1c-1.8-3.8-2.9-7.9-3.3-12
		c-0.6-7.2-0.7-14.3,1-21.4c0.6-2.8,1.8-5.6,3.3-8c2.7-4.4,7.3-7.2,12.4-7.5c2.3-0.2,4.6-0.2,6.9,0.2c4.9,1,8.9,4.1,11,8.6
		c2.1,4.2,3.3,9,3.5,13.7c0.1,2.2,0.2,4.4,0.1,6.6C742.7,300.1,742.1,305.4,740.7,310.3z"/>
	<path fill="#FFFFFF" d="M557,204.7h-16.9c-4.6,0-5.5,0.8-5.5,5.5v39.3c0,0.8,0.4,1.7-0.2,2.5c-1.1-0.1-1.7-0.8-2.5-1.3
		c-12.6-7.4-25.9-8.7-39.2-2.5c-9.3,4.4-15.2,12.3-18.9,21.6c-3.6,9-4.5,18.5-4.2,28c0,9,2.1,17.8,6.1,25.9
		c4.6,8.9,11.3,15.7,21,18.6c13.2,4.1,25.6,2.1,36.9-6.3c0.8-0.5,1.3-1.3,2.4-1.6c0.6,1.3,1.1,2.8,1.3,4.2c0.5,1.9,2.2,3.3,4.2,3.3
		h2.9c4.4,0,8.6,0.1,12.9,0c3.4,0,4.4-1.1,4.5-4.6v-128C561.6,205.6,560.6,204.7,557,204.7z M534.8,294.1v22.1
		c0.2,1.5-0.6,2.8-1.9,3.4c-5.8,3.3-12.5,4.6-19.1,3.6c-5.6-0.6-10.4-4-13-9c-1.9-3.9-3-8-3.4-12.3c-1-7.6-0.4-15.4,1.5-22.8
		c0.6-2.1,1.3-4,2.4-5.9c2.5-4.7,7.4-7.8,12.7-8.1c6.4-0.6,12.9,0.6,18.7,3.3c1.5,0.5,2.3,1.9,2.2,3.5
		C534.7,279.4,534.8,286.7,534.8,294.1L534.8,294.1z"/>
	<path fill="#FFFFFF" d="M630.3,303.7c7-0.5,14.1-1.8,20.4-5.2c6.4-3.2,10.9-9.1,12.3-16.1c0.8-4.4,0.8-9-0.1-13.4
		c-2.5-10.9-9.5-17.7-19.9-21.2c-5.8-1.8-12-2.5-18.1-2.3c-20.4,0.5-35.9,10.8-42.2,31.2c-4.2,13.5-3.6,27.2,0.5,40.7
		c4.2,13.8,14,22.2,27.8,26c5.9,1.5,12.1,2.1,18.2,1.8c8.9-0.1,17.7-1.8,26.1-5c3.5-1.3,4.4-2.5,4.4-6.3V325
		c-0.1-3.5-1.6-4.7-5.1-3.9c-2.7,0.7-5.2,1.3-7.9,1.9c-8.1,1.9-16.6,2.3-24.9,0.8c-8.3-1.6-13.8-6.3-16-14.6
		c-0.6-2.4-1.1-4.9-1.3-7.4c0.6,0,1.2,0,1.7,0.2C614.1,303.7,622.2,304.3,630.3,303.7z M605,284.2c0.8-4.7,1.9-9.3,4.9-13.2
		c4.5-5.9,10.7-7.6,17.7-6.9c0.6,0,1.1,0.2,1.7,0.2c8.5,1.3,10.6,8.1,9,14.7c-1.2,4.9-5.2,6.7-9.7,7.5c-2.4,0.5-5,0.7-7.5,0.6
		c-5-0.1-9.8-0.5-14.7-1.2C605.2,285.8,604.7,285.3,605,284.2L605,284.2z"/>
</g>
</svg>
