<?xml version="1.0" encoding="utf-8"?>
<!-- Generator: Adobe Illustrator 18.1.1, SVG Export Plug-In . SVG Version: 6.00 Build 0)  -->
<!DOCTYPE svg PUBLIC "-//W3C//DTD SVG 1.1//EN" "http://www.w3.org/Graphics/SVG/1.1/DTD/svg11.dtd">
<svg version="1.1" id="Layer_1" xmlns="http://www.w3.org/2000/svg" xmlns:xlink="http://www.w3.org/1999/xlink" x="0px" y="0px"
	 viewBox="0 0 512 512" enable-background="new 0 0 512 512" xml:space="preserve">
<g id="Layer_1_1_">
	<path fill="#FFFFFF" d="M421.1,213.3c-21,0-30.5,10.7-30.5,10.7v-8.4h-48.7v74.6c0,0-5.5,2.4-9.3,1.4s-3.8-6.3-3.8-6.3v-69.6h-48.6
		v10.1c0,0-8.3-9-18.2-10.8c-14.8-2.8-34.1-1-49.9,18.5S201,282.2,201,282.2s-13.1,8.1-23.5,8.1c-10.3,0-9.7-9.1-9.7-9.1v-28.6h32.1
		v-37h-32.6v-27.8h-48.4v79c0,0-2.5-15.9-39.7-27.4c-18.3-5.6-30.9-7.2-28.6-15.2c1.8-6.5,12.7-6.1,12.7-6.1
		c22.1,0,44.4,14.8,44.4,14.8v-44.7c0,0-3.1-1.4-8.3-3.2c-15.6-5.2-51.1-12.6-81.2,8.1C3.8,205.4,0.6,222.7,2.4,236.6
		c1.1,7.2,3.5,13.2,6.9,17.3c10.8,12.8,35.2,18.2,46.6,20.6c11.4,2.4,17.4,5.3,17.4,11.1c0,5.9-7.3,9.9-24.5,7.2
		c-17-2.8-33.4-14.2-33.4-14.2l-12,41c0,0,28.1,16.7,69.2,12c40.9-4.6,47.3-35.5,47.3-35.5c0.2-3-2,32.9,36.9,36.3
		c34.5,3.1,58.8-16.2,58.8-16.2s10.5,16,35.6,16c25.2,0,33.1-15.7,33.1-15.7s3.3,15.7,29.4,15.7c23.9,0,28.3-4,28.3-4v1.7h48.6
		v-68.4c0,0,7.5-6,16.7-2.7c7.3,2.7,7.2,12.3,7.2,12.3v58.8h47.9v-73.6c0,0-1-13.8-6.3-23.5C450.7,223,442.2,213.3,421.1,213.3z
		 M280.4,285.9c0,0-4.8,4.4-14.8,4.4c-10,0-16-7.5-16-17.3c0-9.7,6-17.9,16-17.9c10,0,14.8,4.4,14.8,4.4V285.9z"/>
	<path fill="#FFFFFF" d="M488.3,290.7c-17.8,0-20.1,14.3-20.1,21.4c0,6.8,3.3,18.7,20.6,18.7c17.4,0,21.2-11.5,21.2-19.6
		C509.8,302.7,506,290.7,488.3,290.7z"/>
</g>
</svg>
