<svg role="img" viewBox="0 0 24 24" xmlns="http://www.w3.org/2000/svg">
<title>Stitcher icon</title>
<path d="m19.1 11.5v4.2c0 0.3 0 0.3-0.3 0.3h-3.8c-0.2 0-0.3-0.1-0.3-0.3v-8.5c0.1-0.2 0.2-0.2 0.4-0.2h3.8c0.2 0 0.3 0.1 0.3 0.3-0.1 1.3-0.1 2.8-0.1 4.2zm-4.9 1.2v4.1c0 0.2-0.1 0.3-0.3 0.3h-3.7c-0.2-0.1-0.3-0.1-0.3-0.3v-8.2c0-0.3 0-0.3 0.3-0.3h3.7c0.3 0 0.3 0 0.3 0.3v4.1zm-9.3-0.9v-4c0-0.2 0-0.2 0.2-0.2h3.9c0.2 0 0.2 0 0.2 0.2v8c0 0.2 0 0.2-0.2 0.2h-3.9c-0.2 0-0.2 0-0.2-0.2v-4zm-4.9 0.9v-3.5c0-0.2 0.1-0.3 0.3-0.3h3.7c0.2 0 0.3 0.1 0.3 0.3v7.1c0 0.2-0.1 0.3-0.3 0.3h-3.7c-0.3-0.1-0.3-0.1-0.3-0.3v-3.6zm24-0.7v3.2c0 0.2 0 0.2-0.2 0.2h-3.8c-0.2 0-0.2-0.1-0.2-0.2v-6.4c0-0.2 0-0.3 0.2-0.3h3.7c0.2 0 0.2 0 0.2 0.2 0.1 1.1 0.1 2.2 0.1 3.3z"/>
</svg>
