<?xml version="1.0" encoding="utf-8"?>
<!-- Generator: Adobe Illustrator 18.1.1, SVG Export Plug-In . SVG Version: 6.00 Build 0)  -->
<!DOCTYPE svg PUBLIC "-//W3C//DTD SVG 1.1 Tiny//EN" "http://www.w3.org/Graphics/SVG/1.1/DTD/svg11-tiny.dtd">
<svg version="1.1" baseProfile="tiny" id="Layer_1" xmlns="http://www.w3.org/2000/svg" xmlns:xlink="http://www.w3.org/1999/xlink"
	 x="0px" y="0px" viewBox="0 0 512 512" xml:space="preserve">
<path fill="#FFFFFF" d="M388.3,245.7c0,26.5,0,53.1,0,79.6c0,5.2-0.1,5.3-5.2,5.3c-23.5,0-47.1-0.1-70.6,0.1c-3.7,0-4.9-1-4.9-4.8
	c0.1-53.6,0.1-107.2,0-160.7c0-3.7,1-4.9,4.8-4.9c23.7,0.2,47.3,0.2,71,0c4.1,0,5,1.4,5,5.2C388.3,192.1,388.3,218.9,388.3,245.7z"
	/>
<path fill="#FFFFFF" d="M295.4,267.6c0,25.7-0.1,51.5,0.1,77.2c0,3.8-1,5.2-5,5.2c-23.3-0.2-46.5-0.2-69.8,0c-4,0-5.1-1.2-5.1-5.1
	c0.1-51.5,0.1-102.9,0.1-154.4c0-5.3,0.1-5.4,5.6-5.4c23,0,46,0,69,0c5,0,5.2,0.2,5.2,5.3C295.4,216.1,295.4,241.8,295.4,267.6z"/>
<path fill="#FFFFFF" d="M121.3,250.7c0-25.1,0.1-50.2-0.1-75.2c0-3.5,0.9-4.3,4.3-4.3c24.2,0.2,48.3,0.1,72.5,0
	c3.2,0,4.2,0.8,4.2,4.1c-0.1,50.4-0.1,100.8,0,151.3c0,3.3-1,4.2-4.2,4.2c-24.2-0.1-48.3-0.1-72.5,0c-3.4,0-4.4-0.9-4.3-4.4
	C121.3,301.1,121.3,275.9,121.3,250.7z"/>
<path fill="#FFFFFF" d="M29.2,268.5c0-22.2,0.1-44.5-0.1-66.7c0-3.9,1.1-5.1,5-5.1c23.3,0.2,46.5,0.2,69.8,0c3.8,0,4.8,1.3,4.8,4.9
	c-0.1,44.7-0.1,89.4,0,134.2c0,3.8-1.2,4.8-4.9,4.8c-23.3-0.2-46.5-0.2-69.8,0c-4.1,0-5-1.2-5-5.1C29.3,313.2,29.2,290.8,29.2,268.5
	z"/>
<path fill="#FFFFFF" d="M480.2,255.3c0,20.1-0.1,40.3,0.1,60.4c0,3.3-0.6,4.7-4.4,4.7c-23.5-0.2-47-0.2-70.6,0
	c-3.5,0-4.3-1.2-4.3-4.5c0.1-40.4,0.1-80.8,0-121.2c0-3.6,0.8-4.9,4.7-4.9c23.4,0.2,46.8,0.2,70.2,0c3.3,0,4.4,0.8,4.4,4.3
	C480.1,214.5,480.2,234.9,480.2,255.3z"/>
</svg>
