<svg role="img" viewBox="0 0 24 24" xmlns="http://www.w3.org/2000/svg">
<title>TuneIn icon</title>
<path d="m7.5 11.5v0.7c0 0.1-0.1 0.1-0.1 0.1h-0.8s-0.1 0-0.1 0.1v3.8c0 0.1-0.1 0.1-0.1 0.1h-0.8c-0.1 0-0.1-0.1-0.1-0.1v-3.8s0-0.1-0.1-0.1h-0.8c-0.1 0-0.1-0.1-0.1-0.1v-0.7c0-0.1 0.1-0.1 0.1-0.1h2.9v0.1m15.6-7.6h-10.8c-0.6 0-0.8 0.2-0.8 0.8v2.4c0 0.5 0 0.5-0.5 0.5h-10.2c-0.7 0-0.8 0.1-0.8 0.9v10.6c0 0.9 0.1 1 1 1h10.9c0.5 0 0.6-0.2 0.6-0.7v-2.6c0-0.4 0-0.4 0.4-0.4h10.2c0.6 0 0.8-0.1 0.8-0.7v-10.9c0-0.7-0.2-0.9-0.8-0.9zm-11.7 14.6c0 0.5 0 0.5-0.5 0.5h-9.5c-0.3 0-0.4-0.1-0.4-0.4v-9.5c0-0.3 0.1-0.4 0.4-0.4h10v9.8zm7.7-5.9c0 0.1-0.1 0.1-0.1 0.1h-2.5c-0.1 0-0.1-0.1-0.1-0.1v-0.7c0-0.1 0.1-0.1 0.1-0.1h0.6s0.1 0 0.1-0.1v-3s0-0.1-0.1-0.1h-0.5c-0.1 0-0.1-0.1-0.1-0.1v-0.8c0-0.1 0.1-0.1 0.1-0.1h2.3c0.1 0 0.1 0.1 0.1 0.1v0.7c0 0.1-0.1 0.1-0.1 0.1h-0.5s-0.1 0-0.1 0.1v3s0 0.1 0.1 0.1h0.6c0.1 0 0.1 0.1 0.1 0.1v0.8z"/>
</svg>
