<!-- Generator: Adobe Illustrator 18.1.1, SVG Export Plug-In  -->
<svg role="img" xmlns="http://www.w3.org/2000/svg" viewBox="0 0 24 24">
<title>TuneIn icon</title>
<path d="M7.5,11.5v0.7c0,0.1-0.1,0.1-0.1,0.1H6.6c0,0-0.1,0-0.1,0.1v3.8c0,0.1-0.1,0.1-0.1,0.1H5.6c-0.1,0-0.1-0.1-0.1-0.1v-3.8
	c0,0,0-0.1-0.1-0.1H4.6c-0.1,0-0.1-0.1-0.1-0.1v-0.7c0-0.1,0.1-0.1,0.1-0.1h2.9L7.5,11.5 M23.1,3.9H12.3c-0.6,0-0.8,0.2-0.8,0.8v2.4
	c0,0.5,0,0.5-0.5,0.5H0.8C0.1,7.6,0,7.7,0,8.5v10.6c0,0.9,0.1,1,1,1h10.9c0.5,0,0.6-0.2,0.6-0.7v-2.6c0-0.4,0-0.4,0.4-0.4h10.2
	c0.6,0,0.8-0.1,0.8-0.7V4.8C23.9,4.1,23.7,3.9,23.1,3.9z M11.4,18.5c0,0.5,0,0.5-0.5,0.5H1.4c-0.3,0-0.4-0.1-0.4-0.4V9.1
	c0-0.3,0.1-0.4,0.4-0.4h10V18.5z M19.1,12.6c0,0.1-0.1,0.1-0.1,0.1h-2.5c-0.1,0-0.1-0.1-0.1-0.1v-0.7c0-0.1,0.1-0.1,0.1-0.1h0.6
	c0,0,0.1,0,0.1-0.1v-3c0,0,0-0.1-0.1-0.1h-0.5c-0.1,0-0.1-0.1-0.1-0.1V7.7c0-0.1,0.1-0.1,0.1-0.1h2.3C19,7.6,19,7.7,19,7.7v0.7
	c0,0.1-0.1,0.1-0.1,0.1h-0.5c0,0-0.1,0-0.1,0.1v3c0,0,0,0.1,0.1,0.1H19c0.1,0,0.1,0.1,0.1,0.1L19.1,12.6L19.1,12.6z"/>
</svg>
