<?xml version="1.0" encoding="utf-8"?>
<!-- Generator: Adobe Illustrator 18.1.1, SVG Export Plug-In . SVG Version: 6.00 Build 0)  -->
<!DOCTYPE svg PUBLIC "-//W3C//DTD SVG 1.1 Tiny//EN" "http://www.w3.org/Graphics/SVG/1.1/DTD/svg11-tiny.dtd">
<svg version="1.1" baseProfile="tiny" id="Capa_1" xmlns="http://www.w3.org/2000/svg" xmlns:xlink="http://www.w3.org/1999/xlink"
	 x="0px" y="0px" viewBox="0 0 512 512" xml:space="preserve">
<g>
	<path d="M37.3,289.4c0-32.9,0-65.7,0-98.6c0-12.6,2.5-15.1,14.9-15.1c61.8,0,123.5,0,185.2,0c8.9,0,8.9,0,8.9-8.9
		c0-14.7,0-29.3,0-44c0-12,2.9-14.9,15.2-14.9c35.1,0,70,0,105.1,0c30.6,0,61.2,0,92,0c13,0,16,2.9,16,15.8c0,66.1,0,132.2,0,198.3
		c0,11.4-2.9,14.2-14.5,14.2c-61.9,0-123.9,0-185.8,0c-8.5,0-8.5,0-8.5,8.5c0,15.5,0,31.1,0,46.7c0,8.8-3.4,12.4-12.2,12.5
		c-12.1,0.3-24.1,0.1-36.1,0.1c-53.6,0-107.2,0-160.9,0c-17.1,0-18.9-1.8-18.9-18.7C37.3,353.3,37.3,321.4,37.3,289.4z M246.3,195.6
		c-3-0.1-5.1-0.4-7.2-0.4c-58.1,0-116,0.1-174.1-0.1c-6.4,0-8.1,2-8,8.1c0.1,57.6,0.3,115.3,0,172.8c0,6.2,2,7.6,7.9,7.6
		c57.4-0.1,114.7-0.1,172.2-0.1c9.3,0,9.5,0,9.5-9.1c0-56.9,0-113.9,0-170.9C246.3,201.4,246.3,198.9,246.3,195.6z M371.1,250.3
		c0-17,0.3-33.1-0.1-49.3c-0.1-6.2,1.8-8.5,7.8-7.8c5.1,0.7,7.4-1.6,6.8-6.7c-0.1-1.6-0.1-3,0-4.6c0.5-5.5-2.1-7.4-7.4-7.2
		c-10.9,0.3-21.9,0.4-32.9,0c-6.8-0.3-8,2.9-7.8,8.7c0.3,5.1-1.2,11.2,7.5,9.9c5.4-0.8,7.2,1.6,7.1,7.1c-0.4,14.2-0.4,28.4,0,42.6
		c0.1,6-1.6,8.5-7.6,7.6c-6.2-0.9-9.1,1.7-8.3,8.1c0.3,1.7,0.1,3.5,0,5.3c-0.3,3.9,1.4,5.4,5.4,5.3c12.1-0.1,24.1,0,36.1,0
		c8.9,0,8.9,0,8.9-9.2c0-9.2-0.1-9.3-8.9-9.5C375.9,250.5,374,250.4,371.1,250.3z"/>
	<path d="M119.2,243c13.8,0,27.3,0,40.9,0c3.3,0,6.6,0,9.9,0c8.7,0,8.7,0,8.7,8.8c0,9.1,0,9.1-9.2,9.1c-3.5,0-7,0-11.3,0
		c-0.1,3-0.4,5.5-0.4,8c0,19.7-0.3,39.4,0.1,59.1c0.1,6.6-2.2,8.8-8.4,8c-0.9-0.1-1.7-0.1-2.6,0c-6,0.8-8-1.7-7.9-7.8
		c0.3-19.7-0.1-39.4,0.3-59.1c0.1-6.4-1.7-8.7-8.5-8.5c-13,0.3-12.2,3.3-12.2-12.6C118.5,246.6,118.9,245.1,119.2,243z"/>
</g>
</svg>
